# xmcd
#
# Track frame offsets: 
#        150
#        15219
#        32235
#        57293
#        72770
#        102305
#
# Disc length: 1759 seconds
#
# Revision: 0
# Processed by: cddbd v1.5.2PL0 Copyright (c) Steve Scherf et al.
# Submitted via: ExactAudioCopy v0.95a5
#
DISCID=4306dd06
DTITLE=Blanche - What This Town Needs
DYEAR=2006
DGENRE=Crossover
TTITLE0=What This Town Needs
TTITLE1=Child Of The Moon
TTITLE2=Scar Beneath The Skin
TTITLE3=Never Again (demo)
TTITLE4=Someday...
TTITLE5=So Long Cruel World (live)
EXTD=
EXTT0=
EXTT1=
EXTT2=
EXTT3=
EXTT4=
EXTT5=
PLAYORDER=
